<?xml version="1.0" encoding="iso-8859-1"?>
<!-- Generator: Adobe Illustrator 19.0.0, SVG Export Plug-In . SVG Version: 6.00 Build 0)  -->
<svg version="1.1" id="Layer_1" xmlns="http://www.w3.org/2000/svg" xmlns:xlink="http://www.w3.org/1999/xlink" x="0px" y="0px"
	 viewBox="0 0 505 505" style="enable-background:new 0 0 505 505;" xml:space="preserve">
<circle style="fill:#324A5E;" cx="252.5" cy="252.5" r="252.5"/>
<polygon style="fill:#FFFFFF;" points="325.6,86.1 325.6,139.7 379.1,139.7 379.1,418.9 125.9,418.9 125.9,86.1 "/>
<g>
	<polygon style="fill:#E6E9EE;" points="325.6,86.1 379.1,139.7 325.6,139.7 	"/>
	<rect x="155.7" y="112.9" style="fill:#E6E9EE;" width="90" height="11.4"/>
	<rect x="155.7" y="139.7" style="fill:#E6E9EE;" width="62.5" height="11.4"/>
	<path style="fill:#E6E9EE;" d="M178.4,204.8c-2.3,0-4.1,0.8-5.2,2.4c-1.2,1.6-1.7,3.7-1.7,6.3s0.6,4.8,1.7,6.3
		c1.2,1.6,2.9,2.4,5.2,2.4s4.1-0.8,5.2-2.4c1.2-1.6,1.7-3.7,1.7-6.3s-0.6-4.7-1.7-6.3C182.4,205.6,180.7,204.8,178.4,204.8z
		 M180.9,217.6c-0.5,1-1.4,1.5-2.5,1.5s-2-0.5-2.5-1.5s-0.8-2.4-0.8-4.1c0-1.7,0.3-3,0.8-4.1c0.5-1,1.4-1.5,2.5-1.5s1.9,0.5,2.5,1.5
		c0.5,1,0.8,2.4,0.8,4.1C181.6,215.2,181.4,216.6,180.9,217.6z"/>
	<polygon style="fill:#E6E9EE;" points="190.6,222 194.2,222 194.2,205.2 187.4,205.2 187.4,208.4 190.6,208.4 	"/>
	<path style="fill:#E6E9EE;" d="M204.7,204.8c-2.3,0-4.1,0.8-5.2,2.4c-1.2,1.6-1.7,3.7-1.7,6.3s0.6,4.8,1.7,6.3
		c1.2,1.6,2.9,2.4,5.2,2.4s4.1-0.8,5.2-2.4c1.2-1.6,1.7-3.7,1.7-6.3s-0.6-4.7-1.7-6.3C208.7,205.6,207,204.8,204.7,204.8z
		 M207.2,217.6c-0.5,1-1.4,1.5-2.5,1.5s-2-0.5-2.5-1.5s-0.8-2.4-0.8-4.1c0-1.7,0.3-3,0.8-4.1c0.5-1,1.4-1.5,2.5-1.5s1.9,0.5,2.5,1.5
		c0.5,1,0.8,2.4,0.8,4.1C207.9,215.2,207.7,216.6,207.2,217.6z"/>
	<polygon style="fill:#E6E9EE;" points="216.9,222 220.5,222 220.5,205.2 213.7,205.2 213.7,208.4 216.9,208.4 	"/>
	<path style="fill:#E6E9EE;" d="M231,204.8c-2.3,0-4.1,0.8-5.2,2.4c-1.2,1.6-1.7,3.7-1.7,6.3s0.6,4.8,1.7,6.3
		c1.2,1.6,2.9,2.4,5.2,2.4s4.1-0.8,5.2-2.4c1.2-1.6,1.7-3.7,1.7-6.3s-0.6-4.7-1.7-6.3C235,205.6,233.3,204.8,231,204.8z
		 M233.5,217.6c-0.5,1-1.4,1.5-2.5,1.5s-2-0.5-2.5-1.5s-0.8-2.4-0.8-4.1c0-1.7,0.3-3,0.8-4.1c0.5-1,1.4-1.5,2.5-1.5s1.9,0.5,2.5,1.5
		c0.5,1,0.8,2.4,0.8,4.1C234.2,215.2,234,216.6,233.5,217.6z"/>
	<polygon style="fill:#E6E9EE;" points="243.2,222 246.8,222 246.8,205.2 240,205.2 240,208.4 243.2,208.4 	"/>
	<path style="fill:#E6E9EE;" d="M257.3,222.2c2.3,0,4.1-0.8,5.2-2.4c1.2-1.6,1.7-3.7,1.7-6.3s-0.6-4.7-1.7-6.3
		c-1.2-1.6-2.9-2.4-5.2-2.4c-2.3,0-4.1,0.8-5.2,2.4c-1.2,1.6-1.7,3.7-1.7,6.3s0.6,4.8,1.7,6.3C253.2,221.4,254.9,222.2,257.3,222.2z
		 M254.8,209.5c0.5-1,1.4-1.5,2.5-1.5s1.9,0.5,2.5,1.5c0.5,1,0.8,2.4,0.8,4.1c0,1.7-0.3,3-0.8,4.1c-0.5,1-1.4,1.5-2.5,1.5
		s-2-0.5-2.5-1.5s-0.8-2.4-0.8-4.1C254,211.8,254.3,210.5,254.8,209.5z"/>
	<path style="fill:#E6E9EE;" d="M178.4,252.9c-2.3,0-4.1,0.8-5.2,2.4c-1.2,1.6-1.7,3.7-1.7,6.3c0,2.6,0.6,4.8,1.7,6.3
		c1.2,1.6,2.9,2.4,5.2,2.4s4.1-0.8,5.2-2.4c1.2-1.6,1.7-3.7,1.7-6.3c0-2.6-0.6-4.7-1.7-6.3C182.4,253.7,180.7,252.9,178.4,252.9z
		 M180.9,265.7c-0.5,1-1.4,1.5-2.5,1.5s-2-0.5-2.5-1.5s-0.8-2.4-0.8-4.1s0.3-3,0.8-4.1c0.5-1,1.4-1.5,2.5-1.5s1.9,0.5,2.5,1.5
		c0.5,1,0.8,2.4,0.8,4.1C181.6,263.3,181.4,264.7,180.9,265.7z"/>
	<polygon style="fill:#E6E9EE;" points="190.6,270.1 194.2,270.1 194.2,253.3 187.4,253.3 187.4,256.5 190.6,256.5 	"/>
	<path style="fill:#E6E9EE;" d="M204.7,252.9c-2.3,0-4.1,0.8-5.2,2.4c-1.2,1.6-1.7,3.7-1.7,6.3c0,2.6,0.6,4.8,1.7,6.3
		c1.2,1.6,2.9,2.4,5.2,2.4s4.1-0.8,5.2-2.4c1.2-1.6,1.7-3.7,1.7-6.3c0-2.6-0.6-4.7-1.7-6.3C208.7,253.7,207,252.9,204.7,252.9z
		 M207.2,265.7c-0.5,1-1.4,1.5-2.5,1.5s-2-0.5-2.5-1.5s-0.8-2.4-0.8-4.1s0.3-3,0.8-4.1c0.5-1,1.4-1.5,2.5-1.5s1.9,0.5,2.5,1.5
		c0.5,1,0.8,2.4,0.8,4.1C207.9,263.3,207.7,264.7,207.2,265.7z"/>
	<polygon style="fill:#E6E9EE;" points="216.9,270.1 220.5,270.1 220.5,253.3 213.7,253.3 213.7,256.5 216.9,256.5 	"/>
	<path style="fill:#E6E9EE;" d="M231,252.9c-2.3,0-4.1,0.8-5.2,2.4c-1.2,1.6-1.7,3.7-1.7,6.3c0,2.6,0.6,4.8,1.7,6.3
		c1.2,1.6,2.9,2.4,5.2,2.4s4.1-0.8,5.2-2.4c1.2-1.6,1.7-3.7,1.7-6.3c0-2.6-0.6-4.7-1.7-6.3C235,253.7,233.3,252.9,231,252.9z
		 M233.5,265.7c-0.5,1-1.4,1.5-2.5,1.5s-2-0.5-2.5-1.5s-0.8-2.4-0.8-4.1s0.3-3,0.8-4.1c0.5-1,1.4-1.5,2.5-1.5s1.9,0.5,2.5,1.5
		c0.5,1,0.8,2.4,0.8,4.1C234.2,263.3,234,264.7,233.5,265.7z"/>
	<polygon style="fill:#E6E9EE;" points="243.2,270.1 246.8,270.1 246.8,253.3 240,253.3 240,256.5 243.2,256.5 	"/>
	<path style="fill:#E6E9EE;" d="M257.3,252.9c-2.3,0-4.1,0.8-5.2,2.4c-1.2,1.6-1.7,3.7-1.7,6.3c0,2.6,0.6,4.8,1.7,6.3
		c1.2,1.6,2.9,2.4,5.2,2.4s4.1-0.8,5.2-2.4c1.2-1.6,1.7-3.7,1.7-6.3c0-2.6-0.6-4.7-1.7-6.3C261.3,253.7,259.6,252.9,257.3,252.9z
		 M259.8,265.7c-0.5,1-1.4,1.5-2.5,1.5s-2-0.5-2.5-1.5s-0.8-2.4-0.8-4.1s0.3-3,0.8-4.1c0.5-1,1.4-1.5,2.5-1.5s1.9,0.5,2.5,1.5
		c0.5,1,0.8,2.4,0.8,4.1C260.5,263.3,260.3,264.7,259.8,265.7z"/>
	<path style="fill:#E6E9EE;" d="M178.4,301.1c-2.3,0-4.1,0.8-5.2,2.4c-1.2,1.6-1.7,3.7-1.7,6.3c0,2.6,0.6,4.8,1.7,6.3
		c1.2,1.6,2.9,2.4,5.2,2.4s4.1-0.8,5.2-2.4c1.2-1.6,1.7-3.7,1.7-6.3c0-2.6-0.6-4.7-1.7-6.3C182.4,301.9,180.7,301.1,178.4,301.1z
		 M180.9,313.8c-0.5,1-1.4,1.5-2.5,1.5s-2-0.5-2.5-1.5s-0.8-2.4-0.8-4.1s0.3-3,0.8-4.1c0.5-1,1.4-1.5,2.5-1.5s1.9,0.5,2.5,1.5
		c0.5,1,0.8,2.4,0.8,4.1C181.6,311.5,181.4,312.8,180.9,313.8z"/>
	<polygon style="fill:#E6E9EE;" points="190.6,318.3 194.2,318.3 194.2,301.4 187.4,301.4 187.4,304.6 190.6,304.6 	"/>
	<path style="fill:#E6E9EE;" d="M204.7,301.1c-2.3,0-4.1,0.8-5.2,2.4c-1.2,1.6-1.7,3.7-1.7,6.3c0,2.6,0.6,4.8,1.7,6.3
		c1.2,1.6,2.9,2.4,5.2,2.4s4.1-0.8,5.2-2.4c1.2-1.6,1.7-3.7,1.7-6.3c0-2.6-0.6-4.7-1.7-6.3C208.7,301.9,207,301.1,204.7,301.1z
		 M207.2,313.8c-0.5,1-1.4,1.5-2.5,1.5s-2-0.5-2.5-1.5s-0.8-2.4-0.8-4.1s0.3-3,0.8-4.1c0.5-1,1.4-1.5,2.5-1.5s1.9,0.5,2.5,1.5
		c0.5,1,0.8,2.4,0.8,4.1C207.9,311.5,207.7,312.8,207.2,313.8z"/>
	<path style="fill:#E6E9EE;" d="M221.3,301.1c-2.3,0-4.1,0.8-5.2,2.4c-1.2,1.6-1.7,3.7-1.7,6.3c0,2.6,0.6,4.8,1.7,6.3
		c1.2,1.6,2.9,2.4,5.2,2.4s4.1-0.8,5.2-2.4s1.7-3.7,1.7-6.3c0-2.6-0.6-4.7-1.7-6.3C225.3,301.9,223.6,301.1,221.3,301.1z
		 M223.8,313.8c-0.5,1-1.4,1.5-2.5,1.5s-2-0.5-2.5-1.5s-0.8-2.4-0.8-4.1s0.3-3,0.8-4.1c0.5-1,1.4-1.5,2.5-1.5s1.9,0.5,2.5,1.5
		c0.5,1,0.8,2.4,0.8,4.1C224.5,311.5,224.3,312.8,223.8,313.8z"/>
	<polygon style="fill:#E6E9EE;" points="230.3,304.6 233.5,304.6 233.5,318.3 237.1,318.3 237.1,301.4 230.3,301.4 	"/>
	<path style="fill:#E6E9EE;" d="M247.6,301.1c-2.3,0-4.1,0.8-5.2,2.4c-1.2,1.6-1.7,3.7-1.7,6.3c0,2.6,0.6,4.8,1.7,6.3
		c1.2,1.6,2.9,2.4,5.2,2.4s4.1-0.8,5.2-2.4c1.2-1.6,1.7-3.7,1.7-6.3c0-2.6-0.6-4.7-1.7-6.3C251.6,301.9,249.9,301.1,247.6,301.1z
		 M250.1,313.8c-0.5,1-1.4,1.5-2.5,1.5s-2-0.5-2.5-1.5s-0.8-2.4-0.8-4.1s0.3-3,0.8-4.1c0.5-1,1.4-1.5,2.5-1.5s1.9,0.5,2.5,1.5
		c0.5,1,0.8,2.4,0.8,4.1C250.8,311.5,250.6,312.8,250.1,313.8z"/>
	<polygon style="fill:#E6E9EE;" points="256.6,304.6 259.8,304.6 259.8,318.3 263.4,318.3 263.4,301.4 256.6,301.4 	"/>
	<path style="fill:#E6E9EE;" d="M168.7,349.2c-2.3,0-4.1,0.8-5.2,2.4c-1.2,1.6-1.7,3.7-1.7,6.3s0.6,4.8,1.7,6.3
		c1.2,1.6,2.9,2.4,5.2,2.4s4.1-0.8,5.2-2.4c1.2-1.6,1.7-3.7,1.7-6.3s-0.6-4.7-1.7-6.3C172.7,350,171,349.2,168.7,349.2z M171.2,362
		c-0.5,1-1.4,1.5-2.5,1.5s-2-0.5-2.5-1.5s-0.8-2.4-0.8-4.1s0.3-3,0.8-4.1c0.5-1,1.4-1.5,2.5-1.5s1.9,0.5,2.5,1.5
		c0.5,1,0.8,2.4,0.8,4.1S171.7,360.9,171.2,362z"/>
	<polygon style="fill:#E6E9EE;" points="177.7,352.8 180.9,352.8 180.9,366.4 184.5,366.4 184.5,349.6 177.7,349.6 	"/>
	<path style="fill:#E6E9EE;" d="M195,349.2c-2.3,0-4.1,0.8-5.2,2.4c-1.2,1.6-1.7,3.7-1.7,6.3s0.6,4.8,1.7,6.3
		c1.2,1.6,2.9,2.4,5.2,2.4s4.1-0.8,5.2-2.4c1.2-1.6,1.7-3.7,1.7-6.3s-0.6-4.7-1.7-6.3C199,350,197.3,349.2,195,349.2z M197.5,362
		c-0.5,1-1.4,1.5-2.5,1.5s-2-0.5-2.5-1.5s-0.8-2.4-0.8-4.1s0.3-3,0.8-4.1c0.5-1,1.4-1.5,2.5-1.5s1.9,0.5,2.5,1.5
		c0.5,1,0.8,2.4,0.8,4.1C198.2,359.6,198,360.9,197.5,362z"/>
	<polygon style="fill:#E6E9EE;" points="204,352.8 207.2,352.8 207.2,366.4 210.8,366.4 210.8,349.6 204,349.6 	"/>
	<path style="fill:#E6E9EE;" d="M221.3,349.2c-2.3,0-4.1,0.8-5.2,2.4c-1.2,1.6-1.7,3.7-1.7,6.3s0.6,4.8,1.7,6.3
		c1.2,1.6,2.9,2.4,5.2,2.4s4.1-0.8,5.2-2.4s1.7-3.7,1.7-6.3s-0.6-4.7-1.7-6.3C225.3,350,223.6,349.2,221.3,349.2z M223.8,362
		c-0.5,1-1.4,1.5-2.5,1.5s-2-0.5-2.5-1.5s-0.8-2.4-0.8-4.1s0.3-3,0.8-4.1c0.5-1,1.4-1.5,2.5-1.5s1.9,0.5,2.5,1.5
		c0.5,1,0.8,2.4,0.8,4.1C224.5,359.6,224.3,360.9,223.8,362z"/>
	<polygon style="fill:#E6E9EE;" points="230.3,352.8 233.5,352.8 233.5,366.4 237.1,366.4 237.1,349.6 230.3,349.6 	"/>
	<path style="fill:#E6E9EE;" d="M247.6,349.2c-2.3,0-4.1,0.8-5.2,2.4c-1.2,1.6-1.7,3.7-1.7,6.3s0.6,4.8,1.7,6.3
		c1.2,1.6,2.9,2.4,5.2,2.4s4.1-0.8,5.2-2.4c1.2-1.6,1.7-3.7,1.7-6.3s-0.6-4.7-1.7-6.3C251.6,350,249.9,349.2,247.6,349.2z
		 M250.1,362c-0.5,1-1.4,1.5-2.5,1.5s-2-0.5-2.5-1.5s-0.8-2.4-0.8-4.1s0.3-3,0.8-4.1c0.5-1,1.4-1.5,2.5-1.5s1.9,0.5,2.5,1.5
		c0.5,1,0.8,2.4,0.8,4.1C250.8,359.6,250.6,360.9,250.1,362z"/>
	<polygon style="fill:#E6E9EE;" points="256.6,352.8 259.8,352.8 259.8,366.4 263.4,366.4 263.4,349.6 256.6,349.6 	"/>
</g>
<path style="fill:#54C0EB;" d="M338.7,263.5c-0.9-3.9-2.4-7.5-4.4-10.7l3-6.3l-7.3-7.3l-6.3,3c-3.2-2.1-6.9-3.6-10.7-4.5l-2.3-6.6
	h-10.3l-2.3,6.6c-3.9,0.9-7.5,2.4-10.7,4.5l-6.3-3l-7.3,7.3l3,6.3c-2.1,3.2-3.6,6.9-4.5,10.7l-6.6,2.3v10.3l6.6,2.3
	c0.9,3.9,2.4,7.5,4.5,10.7l-3.3,6.4l7.3,7.3l6.3-3c3.3,2.1,6.9,3.6,10.7,4.5l2.3,6.6h10.3l2.3-6.6c3.9-0.9,7.5-2.4,10.7-4.5l6.3,3
	l7.3-7.3l-3-6.3c2-3.3,3.6-6.9,4.4-10.7l6.6-2.3v-10.3L338.7,263.5z M305.4,286.1c-8.3,0-15.1-6.8-15.1-15.1s6.8-15.1,15.1-15.1
	c8.3,0,15.1,6.8,15.1,15.1S313.8,286.1,305.4,286.1z"/>
<path style="fill:#84DBFF;" d="M295.2,316.6l5.5-14.4l-10.1-5c0.9-5.5,0.7-11.1-0.5-16.4l9.8-5.6l-6.3-14.1l-10.7,3.6
	c-3.2-4.4-7.2-8.3-11.9-11.3l3-10.8l-14.4-5.5l-5,10.1c-5.5-0.9-11.1-0.7-16.4,0.5l-5.6-9.8l-14.1,6.3l3.6,10.7
	c-4.4,3.2-8.3,7.2-11.3,11.9l-10.8-3l-5.5,14.4l10.1,5c-0.9,5.5-0.7,11.1,0.5,16.4l-9.8,5.6l6.3,14.1l10.7-3.6
	c3.2,4.4,7.2,8.3,11.9,11.3l-3,10.8l14.4,5.5l5-10.1c5.5,0.9,11.1,0.7,16.4-0.5l5.6,9.8l14.1-6.3l-3.6-10.7
	c4.4-3.2,8.3-7.2,11.3-11.9L295.2,316.6z M239.4,311.8c-11.9-4.6-17.9-17.9-13.3-29.8c4.6-11.9,17.9-17.9,29.8-13.3
	c11.9,4.6,17.9,17.9,13.3,29.8C264.6,310.4,251.3,316.3,239.4,311.8z"/>
<g>
</g>
<g>
</g>
<g>
</g>
<g>
</g>
<g>
</g>
<g>
</g>
<g>
</g>
<g>
</g>
<g>
</g>
<g>
</g>
<g>
</g>
<g>
</g>
<g>
</g>
<g>
</g>
<g>
</g>
</svg>
