<?xml version="1.0" encoding="iso-8859-1"?>
<!-- Generator: Adobe Illustrator 19.0.0, SVG Export Plug-In . SVG Version: 6.00 Build 0)  -->
<svg version="1.1" id="Capa_1" xmlns="http://www.w3.org/2000/svg" xmlns:xlink="http://www.w3.org/1999/xlink" x="0px" y="0px"
	 viewBox="0 0 491.52 491.52" style="enable-background:new 0 0 491.52 491.52;" xml:space="preserve">
<circle style="fill:#45B39C;" cx="245.76" cy="245.76" r="245.76"/>
<path style="opacity:0.1;enable-background:new    ;" d="M491.52,245.759c0-6.48-0.328-12.88-0.821-19.234L385.178,121.047
	l-0.41-0.41c-0.973-0.922-2.253-1.434-3.635-1.434h-63.437c-0.973,0-1.946-0.256-2.765-0.819l-11.776-11.775
	c-1.024-1.076-2.458-1.639-3.942-1.639h-28.416c-2.97,0-5.427,2.406-5.427,5.427v82.739c0,1.587,0.666,3.021,1.741,3.994
	l-21.043,9.062l-6.195-6.195l-14.336-14.336c-1.28-1.229-3.277-1.229-4.557,0l-6.349,6.349c-1.843-1.178-3.738-2.304-5.683-3.277
	l-17.152-17.152l0.003,0.051c-0.53-0.413-1.14-0.717-1.846-0.717h-20.275c-1.792,0-3.226,1.433-3.226,3.226v8.96
	c-7.782,1.639-15.053,4.71-21.504,8.909l-6.349-6.349c-1.28-1.229-3.277-1.229-4.557,0l-14.336,14.336
	c-1.229,1.28-1.229,3.328,0,4.556l6.349,6.349c-4.198,6.451-7.27,13.722-8.909,21.505h-8.96c-1.792,0-3.226,1.433-3.226,3.226
	v20.275c0,0.87,0.358,1.638,0.922,2.252l17.05,17.05c0.922,1.843,1.997,3.635,3.123,5.376l-6.349,6.349
	c-1.229,1.28-1.229,3.327,0,4.556l14.336,14.337l176.921,176.881C415.033,454.132,491.52,358.905,491.52,245.759z"/>
<g>
	
		<rect x="221.181" y="194.449" transform="matrix(-0.9184 0.3956 -0.3956 -0.9184 605.264 274.3431)" style="fill:#64798A;" width="106.337" height="10.24"/>
	
		<rect x="269.242" y="238.773" transform="matrix(-0.3956 0.9184 -0.9184 -0.3956 651.0184 155.4338)" style="fill:#64798A;" width="10.24" height="106.337"/>
</g>
<g>
	<path style="fill:#FCD462;" d="M381.111,119.192h-63.409c-1.47,0-2.877-0.593-3.903-1.646l-10.664-10.94
		c-1.026-1.052-2.433-1.646-3.902-1.646h-28.419c-3.009,0-5.449,2.44-5.449,5.449v82.734c0,3.01,2.44,5.45,5.449,5.45h110.297
		c3.01,0,5.449-2.44,5.449-5.45v-68.502C386.56,121.632,384.12,119.192,381.111,119.192z"/>
	<path style="fill:#FCD462;" d="M381.111,307.159h-63.409c-1.47,0-2.877-0.593-3.903-1.646l-10.664-10.94
		c-1.026-1.052-2.433-1.646-3.902-1.646h-28.419c-3.009,0-5.449,2.44-5.449,5.449v82.734c0,3.01,2.44,5.45,5.449,5.45h110.297
		c3.01,0,5.449-2.44,5.449-5.45v-68.501C386.56,309.599,384.12,307.159,381.111,307.159z"/>
</g>
<path style="fill:#FFFFFF;" d="M179.792,202.054c-24.138,0-43.706,19.568-43.706,43.706c0,24.139,19.568,43.706,43.706,43.706
	c24.139,0,43.707-19.568,43.707-43.706C223.499,221.621,203.931,202.054,179.792,202.054z M179.792,272.103
	c-14.548,0-26.343-11.794-26.343-26.343c0-14.548,11.794-26.342,26.343-26.342c14.548,0,26.343,11.794,26.343,26.342
	C206.135,260.309,194.34,272.103,179.792,272.103z"/>
<circle style="fill:#D15241;" cx="179.814" cy="245.76" r="26.342"/>
<path style="fill:#E56353;" d="M251.409,232.404h-8.95c-1.652-7.786-4.735-15.032-8.933-21.492l6.349-6.35
	c1.256-1.256,1.256-3.292,0-4.548l-14.339-14.34c-1.255-1.256-3.292-1.256-4.548,0l-6.349,6.35
	c-6.46-4.198-13.707-7.281-21.493-8.933v-8.949c0-1.776-1.44-3.216-3.215-3.216h-20.28c-1.776,0-3.216,1.44-3.216,3.216v8.949
	c-7.786,1.652-15.031,4.735-21.491,8.933l-6.351-6.35c-1.256-1.256-3.292-1.256-4.548,0l-14.339,14.34
	c-1.256,1.256-1.256,3.292,0,4.548l6.35,6.35c-4.198,6.46-7.28,13.706-8.932,21.492h-8.95c-1.776,0-3.215,1.44-3.215,3.216v20.279
	c0,1.776,1.44,3.216,3.215,3.216h8.95c1.652,7.786,4.734,15.032,8.932,21.492l-6.35,6.35c-1.256,1.256-1.256,3.292,0,4.548
	l14.339,14.34c1.256,1.256,3.292,1.256,4.548,0l6.351-6.35c6.46,4.198,13.705,7.281,21.491,8.932v8.95
	c0,1.776,1.44,3.216,3.216,3.216h20.28c1.775,0,3.215-1.44,3.215-3.216v-8.95c7.786-1.652,15.033-4.734,21.493-8.932l6.349,6.35
	c1.256,1.256,3.293,1.256,4.548,0l14.339-14.34c1.256-1.256,1.256-3.292,0-4.548l-6.349-6.35c4.197-6.46,7.28-13.706,8.933-21.492
	h8.95c1.776,0,3.215-1.44,3.215-3.216V235.62C254.624,233.844,253.185,232.404,251.409,232.404z M179.792,294.378
	c-26.851,0-48.618-21.767-48.618-48.618c0-26.851,21.767-48.618,48.618-48.618c26.851,0,48.617,21.767,48.617,48.618
	C228.41,272.611,206.643,294.378,179.792,294.378z"/>
<path style="fill:#D15241;" d="M179.792,197.142c-26.851,0-48.618,21.767-48.618,48.618c0,26.851,21.767,48.618,48.618,48.618
	c26.851,0,48.617-21.767,48.617-48.618C228.41,218.909,206.643,197.142,179.792,197.142z M179.792,289.466
	c-24.138,0-43.706-19.568-43.706-43.706c0-24.138,19.568-43.706,43.706-43.706c24.139,0,43.707,19.568,43.707,43.706
	C223.499,269.898,203.931,289.466,179.792,289.466z"/>
<g>
</g>
<g>
</g>
<g>
</g>
<g>
</g>
<g>
</g>
<g>
</g>
<g>
</g>
<g>
</g>
<g>
</g>
<g>
</g>
<g>
</g>
<g>
</g>
<g>
</g>
<g>
</g>
<g>
</g>
</svg>
