<?xml version="1.0" encoding="iso-8859-1"?>
<!-- Generator: Adobe Illustrator 19.0.0, SVG Export Plug-In . SVG Version: 6.00 Build 0)  -->
<svg version="1.1" id="Capa_1" xmlns="http://www.w3.org/2000/svg" xmlns:xlink="http://www.w3.org/1999/xlink" x="0px" y="0px"
	 viewBox="0 0 491.52 491.52" style="enable-background:new 0 0 491.52 491.52;" xml:space="preserve">
<circle style="fill:#E05B49;" cx="245.76" cy="245.76" r="245.76"/>
<path style="opacity:0.1;enable-background:new    ;" d="M368.64,153.334c-1.638-1.485-3.738-2.355-6.093-2.355H128.973
	c-5.12,0-9.267,4.148-9.267,9.318V317.02H104.96v17.664l156.299,156.299c118.928-7.409,214.888-99.364,228.534-216.496
	L369.562,154.255L368.64,153.334z"/>
<rect x="104.96" y="317.041" style="fill:#EBF0F3;" width="281.6" height="17.638"/>
<polygon style="fill:#D5D6DB;" points="386.397,334.69 105.123,334.69 119.689,340.546 371.831,340.546 "/>
<path style="fill:#3A556A;" d="M362.524,150.974H128.997c-5.146,0-9.317,4.171-9.317,9.317V317.04h252.16V160.291
	C371.84,155.146,367.669,150.974,362.524,150.974z"/>
<rect x="135.04" y="166.339" style="fill:#EBF0F3;" width="221.44" height="135.347"/>
<rect x="135.04" y="293.837" style="fill:#D5D6DB;" width="221.44" height="7.818"/>
<rect x="257.382" y="252.877" style="fill:#FCD462;" width="15.862" height="25.856"/>
<rect x="257.382" y="278.733" style="fill:#F6C358;" width="15.862" height="5.325"/>
<rect x="280.192" y="278.733" style="fill:#3A556A;" width="15.862" height="5.325"/>
<rect x="280.192" y="222.106" style="fill:#64798A;" width="15.862" height="56.627"/>
<rect x="303.002" y="278.733" style="fill:#2D93BA;" width="15.862" height="5.325"/>
<rect x="303.002" y="239.288" style="fill:#27A2DB;" width="15.862" height="39.455"/>
<rect x="325.786" y="185.6" style="fill:#44C4A1;" width="15.862" height="93.133"/>
<rect x="325.786" y="278.733" style="fill:#3EA69B;" width="15.862" height="5.325"/>
<rect x="149.862" y="181.473" style="fill:#27A2DB;" width="17.439" height="8.586"/>
<rect x="178.939" y="181.473" style="fill:#E56353;" width="17.439" height="8.586"/>
<rect x="210.739" y="181.473" style="fill:#44C4A1;" width="37.325" height="8.586"/>
<rect x="149.862" y="253.834" style="fill:#27A2DB;" width="17.439" height="8.586"/>
<rect x="178.939" y="253.834" style="fill:#E56353;" width="17.439" height="8.586"/>
<rect x="210.739" y="253.834" style="fill:#44C4A1;" width="37.325" height="8.586"/>
<rect x="149.862" y="229.714" style="fill:#FCD462;" width="29.066" height="8.586"/>
<rect x="187.812" y="229.714" style="fill:#27A2DB;" width="17.439" height="8.586"/>
<rect x="214.129" y="229.714" style="fill:#D5D6DB;" width="33.961" height="8.586"/>
<g>
	<rect x="149.862" y="205.619" style="fill:#64798A;" width="17.439" height="8.586"/>
	<rect x="178.939" y="205.619" style="fill:#64798A;" width="37.939" height="8.586"/>
</g>
<rect x="227.584" y="205.619" style="fill:#E56353;" width="20.48" height="8.586"/>
<rect x="149.862" y="277.965" style="fill:#44C4A1;" width="17.439" height="8.586"/>
<rect x="178.939" y="277.965" style="fill:#64798A;" width="37.939" height="8.586"/>
<rect x="227.584" y="277.965" style="fill:#E56353;" width="20.48" height="8.586"/>
<rect x="224.814" y="323.174" style="fill:#D5D6DB;" width="41.897" height="5.407"/>
<g>
</g>
<g>
</g>
<g>
</g>
<g>
</g>
<g>
</g>
<g>
</g>
<g>
</g>
<g>
</g>
<g>
</g>
<g>
</g>
<g>
</g>
<g>
</g>
<g>
</g>
<g>
</g>
<g>
</g>
</svg>
